<?xml version="1.0" standalone="no"?>
<!DOCTYPE svg PUBLIC "-//W3C//DTD SVG 20010904//EN"
 "http://www.w3.org/TR/2001/REC-SVG-20010904/DTD/svg10.dtd">
<svg version="1.0" xmlns="http://www.w3.org/2000/svg"
 width="454.000000pt" height="324.000000pt" viewBox="0 0 454.000000 324.000000"
 preserveAspectRatio="xMidYMid meet">

<g transform="translate(0.000000,324.000000) scale(0.100000,-0.100000)"
fill="#000000" stroke="none">
<path d="M1514 2471 c-53 -14 -137 -64 -185 -112 -67 -65 -83 -102 -83 -179 0
-71 14 -107 70 -176 30 -38 31 -42 17 -57 -12 -12 -18 -45 -23 -119 -4 -57
-18 -148 -33 -203 -83 -319 -52 -556 98 -739 96 -118 193 -191 360 -271 336
-161 648 -163 982 -5 249 118 418 289 486 493 42 126 20 424 -44 606 -12 34
-19 82 -19 124 0 42 -6 79 -15 98 -15 29 -15 31 18 72 55 67 71 106 71 172 1
74 -21 123 -84 185 -156 152 -325 152 -464 -1 l-54 -60 -54 16 c-188 57 -454
58 -642 3 l-69 -20 -54 61 c-81 90 -191 135 -279 112z m949 -182 c180 -36 316
-110 442 -238 l59 -61 -732 0 -733 0 33 41 c63 78 183 162 304 213 160 66 429
86 627 45z m554 -381 c18 -29 46 -83 63 -120 30 -67 30 -70 30 -238 0 -157 -2
-172 -20 -190 -19 -19 -33 -20 -387 -20 l-367 0 -36 34 c-53 52 -98 52 -157 1
l-41 -35 -366 0 -365 0 -15 22 c-13 18 -16 53 -16 176 0 143 2 158 27 220 14
37 44 97 67 135 l40 67 756 0 756 0 31 -52z m-1631 18 c3 -8 -6 -36 -20 -63
l-26 -48 0 51 c0 46 12 74 32 74 5 0 11 -6 14 -14z m1718 -2 c3 -9 6 -32 6
-52 l-1 -37 -20 38 c-20 37 -20 67 0 67 5 0 12 -7 15 -16z m61 -430 c19 -128
19 -284 0 -358 -64 -245 -329 -467 -670 -563 -70 -20 -122 -26 -235 -30 -132
-5 -155 -3 -253 21 -368 89 -644 310 -712 572 -19 72 -19 249 -1 354 l13 75 2
-81 c0 -45 6 -95 12 -113 21 -60 30 -61 430 -61 l362 0 43 40 c25 23 53 40 67
40 14 0 44 -17 70 -40 l45 -40 361 0 c248 0 368 4 385 11 42 19 56 65 56 180
0 56 2 100 5 97 3 -2 12 -49 20 -104z"/>
<path d="M1503 1859 c-56 -16 -68 -47 -71 -184 -5 -149 7 -198 51 -225 30 -18
52 -20 300 -20 291 0 312 3 335 55 8 16 12 79 12 169 0 218 4 216 -355 215
-132 0 -255 -5 -272 -10z"/>
<path d="M2394 1859 c-62 -18 -69 -36 -72 -196 -2 -98 0 -155 9 -175 22 -55
42 -58 333 -58 146 0 276 4 290 10 52 19 61 50 61 210 0 168 -8 192 -72 209
-46 13 -505 13 -549 0z m56 -23 c0 -1 -22 -17 -50 -34 -36 -23 -50 -27 -50
-17 0 25 38 55 70 55 17 0 30 -2 30 -4z m105 -4 c-14 -12 -194 -122 -200 -122
-3 0 -5 7 -5 15 0 22 149 115 185 115 16 0 25 -4 20 -8z m114 4 c-20 -19 -312
-196 -316 -192 -14 14 16 40 134 114 83 53 138 82 157 82 16 0 27 -2 25 -4z
m96 -10 c-48 -33 -405 -256 -410 -256 -3 0 -5 8 -5 18 0 25 364 252 405 252
28 0 28 -1 10 -14z m124 10 c-2 -2 -123 -79 -269 -169 -191 -120 -266 -161
-268 -151 -2 9 -2 17 0 19 1 1 111 71 243 154 169 107 248 151 269 151 16 0
27 -2 25 -4z m74 -14 c3 -4 -123 -87 -279 -185 -219 -136 -289 -175 -301 -168
-14 7 -8 14 33 39 27 17 153 96 279 176 216 136 257 157 268 138z m27 -46 c0
-8 -108 -82 -240 -166 -181 -115 -246 -151 -266 -148 -22 2 21 33 232 166 142
89 262 162 266 162 5 0 8 -6 8 -14z m0 -64 c0 -26 -362 -254 -397 -250 -21 2
15 29 183 135 115 73 210 133 212 133 1 0 2 -8 2 -18z m0 -70 c0 -26 -253
-184 -288 -180 -20 2 3 21 129 100 85 54 155 98 157 98 1 0 2 -8 2 -18z m0
-71 c0 -25 -143 -113 -178 -109 -23 3 -14 11 68 65 52 34 98 62 103 62 4 1 7
-7 7 -18z m-7 -71 c-7 -25 -37 -42 -65 -38 -19 3 -17 6 18 30 48 33 54 34 47
8z"/>
<path d="M2132 1230 c-41 -25 -56 -58 -48 -104 7 -35 53 -93 90 -113 19 -10
19 -12 2 -38 -49 -74 -194 -72 -226 4 -14 35 -38 47 -47 25 -9 -24 25 -81 62
-104 71 -44 167 -31 232 32 l33 31 23 -25 c49 -53 127 -77 194 -59 46 12 113
78 113 110 0 29 -22 38 -34 15 -6 -10 -25 -33 -42 -51 -28 -29 -39 -33 -82
-33 -51 0 -104 26 -126 63 -9 15 -7 20 9 29 37 21 84 78 90 111 15 79 -40 127
-145 127 -47 0 -74 -5 -98 -20z"/>
</g>
</svg>
