<?xml version="1.0" standalone="no"?>
<!DOCTYPE svg PUBLIC "-//W3C//DTD SVG 20010904//EN"
 "http://www.w3.org/TR/2001/REC-SVG-20010904/DTD/svg10.dtd">
<svg version="1.0" xmlns="http://www.w3.org/2000/svg"
 width="386.000000pt" height="355.000000pt" viewBox="0 0 386.000000 355.000000"
 preserveAspectRatio="xMidYMid meet">

<g transform="translate(0.000000,355.000000) scale(0.100000,-0.100000)"
fill="#000000" stroke="none">
<path d="M1148 2646 c-55 -20 -132 -72 -173 -118 -106 -116 -97 -243 25 -372
l50 -53 -36 -77 -36 -76 -44 0 -44 0 0 -277 c1 -308 8 -370 60 -477 78 -164
231 -304 445 -406 339 -161 667 -158 1007 10 238 118 383 268 461 480 19 50
21 83 24 363 l4 307 -44 0 -45 0 -36 76 -36 77 50 53 c62 66 100 143 100 205
0 94 -87 207 -206 265 -72 35 -127 40 -200 19 -49 -14 -69 -28 -132 -91 l-74
-74 -64 20 c-181 55 -513 50 -666 -11 -24 -10 -31 -6 -100 63 -101 101 -189
130 -290 94z m959 -175 c181 -35 306 -99 431 -217 l87 -83 -735 0 -735 0 86
82 c167 162 365 234 641 236 87 1 158 -5 225 -18z m-1029 -1049 c26 -45 65
-52 286 -52 l204 0 58 44 c33 24 91 69 129 100 74 59 119 79 165 69 16 -3 79
-46 142 -95 62 -49 125 -96 140 -104 39 -20 404 -20 453 0 58 24 60 34 65 336
l5 275 20 -40 c16 -34 20 -66 23 -202 l3 -162 32 -3 32 -3 3 -98 c6 -210 -71
-366 -253 -515 -193 -156 -457 -252 -695 -252 -225 0 -476 86 -670 231 -86 64
-136 116 -190 200 -63 97 -82 165 -87 312 l-5 127 35 0 36 0 3 163 c3 136 7
168 23 202 l20 40 5 -275 c4 -203 8 -281 18 -298z"/>
<path d="M1690 2270 l0 -60 198 2 197 3 3 58 3 57 -201 0 -200 0 0 -60z"/>
<path d="M1788 1413 c-47 -29 -61 -89 -33 -142 14 -28 63 -75 86 -83 21 -7 -9
-47 -53 -69 -78 -40 -144 -17 -195 67 -10 17 -13 17 -27 4 -14 -14 -14 -18 1
-48 50 -102 199 -121 289 -37 l34 32 34 -32 c70 -66 187 -71 250 -11 39 36 55
81 36 99 -9 9 -15 8 -24 -7 -6 -11 -22 -32 -36 -49 -48 -55 -165 -45 -207 19
-13 21 -14 29 -5 32 24 8 73 54 87 83 25 48 19 87 -19 125 -33 33 -36 34 -112
34 -56 0 -87 -5 -106 -17z"/>
</g>
</svg>
